# xmcd
#
# Track frame offsets: 
#        150
#        10407
#        33070
#        54796
#        77330
#        102118
#        126460
#        147988
#        166985
#        189786
#        215615
#
# Disc length: 3157 seconds
#
# Revision: 0
# Processed by: cddbd v1.5.2PL0 Copyright (c) Steve Scherf et al.
# Submitted via: ExactAudioCopy v1.0b3
#
DISCID=840c530b
DTITLE=Mong Thi - Bong Buoi Hoa Cau
DYEAR=2000
DGENRE=
TTITLE0=Loi gioi thieu
TTITLE1=Me oi
TTITLE2=Tinh Cha
TTITLE3=Bong buoi hoa cau
TTITLE4=Roi hai muoi nam sau
TTITLE5=Sa mua giong
TTITLE6=Nho Me
TTITLE7=Nguoi Me Go Cong
TTITLE8=Ngoi buon nho Me
TTITLE9=Long Me Viet Nam
TTITLE10=Me yeu
EXTD=
EXTT0=
EXTT1=
EXTT2=
EXTT3=
EXTT4=
EXTT5=
EXTT6=
EXTT7=
EXTT8=
EXTT9=
EXTT10=
PLAYORDER=
